<?xml version="1.0" standalone="no"?>
<!DOCTYPE svg PUBLIC "-//W3C//DTD SVG 20010904//EN"
 "http://www.w3.org/TR/2001/REC-SVG-20010904/DTD/svg10.dtd">
<svg version="1.0" xmlns="http://www.w3.org/2000/svg"
 width="700.000000pt" height="700.000000pt" viewBox="0 0 700.000000 700.000000"
 preserveAspectRatio="xMidYMid meet">
<metadata>
Created by potrace 1.11, written by Peter Selinger 2001-2013
</metadata>
<g transform="translate(0.000000,700.000000) scale(0.100000,-0.100000)"
fill="#000000" stroke="none">
<path d="M3463 6694 c-22 -38 -141 -244 -265 -459 -124 -214 -512 -887 -863
-1495 -1225 -2121 -1485 -2572 -1485 -2576 0 -2 83 -4 185 -4 102 0 185 -3
185 -7 0 -3 -82 -148 -182 -322 -101 -173 -184 -318 -186 -323 -2 -4 73 -9
166 -10 l170 -3 -165 -285 c-91 -157 -167 -291 -170 -297 -4 -10 36 -13 181
-13 102 0 186 -3 186 -7 0 -5 -83 -152 -185 -328 l-185 -320 2647 -3 c1455 -1
2648 0 2651 2 2 3 -80 149 -182 327 -102 177 -186 323 -186 325 0 2 83 5 185
6 l184 3 -169 294 c-94 162 -170 296 -170 298 0 2 77 3 171 3 141 0 170 2 166
14 -3 7 -87 155 -186 327 l-181 314 186 3 c170 2 185 4 179 19 -3 10 -58 108
-122 218 -64 110 -343 594 -621 1075 -278 481 -722 1251 -987 1710 -809 1401
-891 1544 -902 1564 -9 17 -15 10 -50 -50z m292 -479 c136 -236 491 -851 788
-1365 297 -514 751 -1302 1010 -1750 258 -448 478 -830 489 -848 l20 -33 -162
3 -162 3 -467 810 c-257 446 -714 1238 -1016 1760 -302 523 -593 1028 -648
1123 -55 94 -102 172 -106 172 -3 0 -169 -283 -368 -628 -198 -345 -570 -989
-826 -1432 -256 -443 -595 -1030 -753 -1305 l-289 -500 -159 -3 c-139 -2 -158
-1 -152 13 3 8 175 309 382 668 507 877 1057 1829 1604 2777 533 923 561 972
565 968 1 -2 114 -196 250 -433z m87 -905 c284 -493 1012 -1754 1591 -2758
103 -178 187 -325 187 -328 0 -2 -52 -3 -116 -2 l-117 3 -441 765 c-243 421
-648 1123 -901 1560 -252 437 -477 828 -499 867 -23 40 -43 73 -46 73 -3 0
-148 -246 -322 -547 -861 -1492 -1393 -2414 -1478 -2560 l-94 -163 -114 0
c-62 0 -111 3 -109 8 3 4 189 327 414 717 226 391 605 1048 843 1460 961 1665
859 1491 870 1478 4 -4 153 -262 332 -573z m-246 -268 c79 -137 985 -1706
1458 -2525 91 -159 166 -290 166 -293 0 -2 -46 -4 -103 -4 -86 0 -104 3 -113
18 -9 14 -601 1039 -1376 2382 -65 113 -122 206 -126 207 -4 1 -150 -246 -325
-550 -175 -304 -513 -889 -751 -1302 l-433 -750 -112 -3 -112 -3 15 23 c8 13
191 329 407 703 215 374 594 1031 842 1460 247 429 451 783 454 788 2 4 7 7
11 7 4 0 48 -71 98 -158z m-2043 -2914 c-11 -18 -83 -144 -162 -280 l-143
-248 -115 0 -115 0 14 23 c8 12 82 138 163 280 l148 257 114 0 115 0 -19 -32z
m396 25 c0 -5 -71 -129 -157 -278 l-157 -270 -109 -3 c-69 -2 -107 1 -104 7 1
6 73 132 158 280 l155 270 108 1 c59 0 107 -3 106 -7z m3438 -213 c68 -118
140 -243 160 -277 l35 -63 -105 0 -105 0 -157 273 c-87 149 -160 276 -162 280
-3 4 43 6 102 5 l107 -3 125 -215z m434 -60 l159 -275 -112 -3 c-61 -1 -115 1
-120 6 -10 10 -318 541 -318 548 0 3 52 3 116 2 l117 -3 158 -275z m-4253
-388 c-1 -5 -63 -113 -137 -240 l-133 -232 -110 0 -109 0 33 58 c18 32 80 140
138 240 l105 182 108 0 c60 0 107 -4 105 -8z m4208 -227 c74 -126 134 -233
134 -237 0 -5 -46 -8 -102 -8 l-103 0 -110 192 c-60 105 -123 213 -138 240
l-28 49 107 -3 107 -3 133 -230z"/>
</g>
</svg>
